<svg width="48" height="48" viewBox="0 0 48 48" fill="none" xmlns="http://www.w3.org/2000/svg">
<path d="M31 23H29L26 29L22 17L19 23H17M23.9863 10.2716C19.9876 5.5968 13.3195 4.33929 8.30939 8.62003C3.29929 12.9008 2.59394 20.058 6.5284 25.1208C9.50018 28.9449 17.9426 36.6219 21.896 40.1498C22.6228 40.7983 22.9861 41.1226 23.4117 41.2502C23.7811 41.361 24.1916 41.361 24.5609 41.2502C24.9865 41.1226 25.3498 40.7983 26.0766 40.1498C30.03 36.6219 38.4724 28.9449 41.4442 25.1208C45.3787 20.058 44.7594 12.8557 39.6632 8.62003C34.567 4.38431 27.985 5.5968 23.9863 10.2716Z" stroke="#007CC2" stroke-width="2" stroke-linecap="round" stroke-linejoin="round"/>
</svg>
