<svg width="44" height="46" viewBox="0 0 44 46" fill="none" xmlns="http://www.w3.org/2000/svg">
<path d="M1 12.2C1 8.27963 1 6.31945 1.76295 4.82207C2.43407 3.50493 3.50493 2.43407 4.82207 1.76295C6.31945 1 8.27963 1 12.2 1H31.8C35.7204 1 37.6805 1 39.1779 1.76295C40.4951 2.43407 41.5659 3.50493 42.237 4.82207C43 6.31945 43 8.27963 43 12.2V24.8C43 28.7204 43 30.6806 42.237 32.1779C41.5659 33.4951 40.4951 34.5659 39.1779 35.237C37.6805 36 35.7204 36 31.8 36H16.5954C15.1393 36 14.4112 36 13.7148 36.1429C13.097 36.2697 12.4991 36.4794 11.9375 36.7664C11.3044 37.0898 10.7359 37.5446 9.59883 38.4543L4.03277 42.9071C3.0619 43.6838 2.57646 44.0722 2.16793 44.0726C1.81263 44.073 1.47652 43.9114 1.25487 43.6338C1 43.3145 1 42.6928 1 41.4495V12.2Z" stroke="black" stroke-width="2" stroke-linecap="round" stroke-linejoin="round"/>
</svg>
