<svg width="32" height="33" viewBox="0 0 32 33" fill="none" xmlns="http://www.w3.org/2000/svg">
<path d="M12.6667 9.33706C12.9603 8.50227 13.54 7.79834 14.3029 7.34996C15.0658 6.90158 15.9628 6.73767 16.835 6.88728C17.7072 7.03688 18.4983 7.49034 19.0682 8.16734C19.6381 8.84434 19.9501 9.70119 19.9487 10.5861C19.9487 13.0843 16.2015 14.3333 16.2015 14.3333M16.2498 19.3333H16.2665M7.66667 26V29.8925C7.66667 30.7806 7.66667 31.2246 7.84871 31.4527C8.00704 31.651 8.24712 31.7664 8.5009 31.7661C8.79271 31.7658 9.13945 31.4884 9.83293 30.9337L13.8087 27.7531C14.6209 27.1033 15.0269 26.7784 15.4791 26.5474C15.8803 26.3425 16.3074 26.1927 16.7487 26.1021C17.2461 26 17.7662 26 18.8062 26H23C25.8003 26 27.2004 26 28.27 25.455C29.2108 24.9757 29.9757 24.2108 30.455 23.27C31 22.2004 31 20.8003 31 18V9C31 6.19974 31 4.79961 30.455 3.73005C29.9757 2.78924 29.2108 2.02433 28.27 1.54497C27.2004 1 25.8003 1 23 1H9C6.19974 1 4.79961 1 3.73005 1.54497C2.78924 2.02433 2.02433 2.78924 1.54497 3.73005C1 4.79961 1 6.19974 1 9V19.3333C1 20.8833 1 21.6583 1.17037 22.2941C1.63271 24.0196 2.98044 25.3673 4.7059 25.8296C5.34174 26 6.11671 26 7.66667 26Z" stroke="#007CC2" stroke-width="2" stroke-linecap="round" stroke-linejoin="round"/>
</svg>
