<svg width="40" height="36" viewBox="0 0 40 36" fill="none" xmlns="http://www.w3.org/2000/svg">
<path d="M14.9992 23C14.9992 23 17.6243 26 21.9993 26C26.3743 26 28.9993 23 28.9993 23M27.4993 13H27.5193M16.4992 13H16.5192M21.9993 35C31.3881 35 38.9992 27.3888 38.9992 18C38.9992 8.61116 31.3881 1 21.9993 1C12.6104 1 4.99925 8.61116 4.99925 18C4.99925 19.9 5.31094 21.7272 5.88599 23.4332C6.10239 24.0752 6.21059 24.3962 6.2301 24.6429C6.24938 24.8864 6.23481 25.0571 6.17456 25.2939C6.11354 25.5336 5.97884 25.783 5.70944 26.2816L2.43812 32.3367C1.9715 33.2004 1.73819 33.6323 1.79041 33.9655C1.83589 34.2558 2.00674 34.5115 2.2576 34.6645C2.5456 34.8402 3.03385 34.7897 4.01033 34.6887L14.2524 33.63C14.5625 33.598 14.7176 33.5819 14.859 33.5873C14.998 33.5927 15.0961 33.6057 15.2317 33.637C15.3696 33.6687 15.5429 33.7355 15.8896 33.8691C17.7857 34.5996 19.8457 35 21.9993 35ZM28.4993 13C28.4993 13.5523 28.0515 14 27.4993 14C26.947 14 26.4993 13.5523 26.4993 13C26.4993 12.4477 26.947 12 27.4993 12C28.0515 12 28.4993 12.4477 28.4993 13ZM17.4992 13C17.4992 13.5523 17.0515 14 16.4992 14C15.947 14 15.4992 13.5523 15.4992 13C15.4992 12.4477 15.947 12 16.4992 12C17.0515 12 17.4992 12.4477 17.4992 13Z" stroke="#DE5217" stroke-width="2" stroke-linecap="round" stroke-linejoin="round"/>
</svg>
