<svg width="277" height="29" viewBox="0 0 277 29" fill="none" xmlns="http://www.w3.org/2000/svg">
<path d="M18.9219 15.3322C17.2183 20.2604 12.5335 26.7705 9.06547 27.8657C8.70042 26.2838 8.57874 21.2947 8.57874 20.3821V14.1154C8.57874 12.4118 8.94379 6.14505 9.73474 4.68484H0C0.790947 6.14505 1.156 12.4118 1.156 14.1154V19.0436C1.156 20.6863 0.790947 26.8314 0 28.3524H17.7659C17.8876 28.3524 17.9484 28.2916 17.9484 28.1699C18.0701 27.0747 18.7394 19.5912 19.1653 15.3931C19.1653 15.2714 18.9827 15.2105 18.9219 15.3322Z" fill="white"/>
<path d="M28.0244 24.0935C28.0244 24.0935 27.9636 11.2558 27.9636 9.49137C26.3209 11.3775 22.8529 11.6817 20.9059 11.6817C20.0541 11.6817 19.4457 11.6208 19.4457 11.6208C20.115 12.9594 20.6017 14.1154 20.6017 15.8189V24.0935C20.6017 25.7362 20.2367 26.8314 19.4457 28.2916H29.1804C28.3895 26.8314 28.0244 25.7362 28.0244 24.0935ZM24.1914 9.248C26.26 9.248 28.0244 7.48358 28.0244 5.41495C28.0244 3.28547 26.26 1.58189 24.1914 1.58189C22.0619 1.58189 20.2975 3.28547 20.2975 5.41495C20.2975 7.48358 22.0619 9.248 24.1914 9.248Z" fill="white"/>
<path d="M29.4894 10.2823C29.4894 10.5257 29.6719 10.7082 29.8545 10.7082H32.0448C32.0448 11.0733 31.9839 11.4383 31.9839 11.8642V24.0935C31.9839 25.7362 31.6189 26.8314 30.8279 28.2916H40.5627C39.8326 26.8314 39.4067 25.7362 39.4067 24.0935V10.7082H41.4753C41.7187 10.7082 41.8403 10.5257 41.8403 10.2823V10.0998C41.8403 9.85642 41.7187 9.67389 41.4753 9.67389H39.2241C38.6766 7.54442 37.338 3.71137 40.1368 3.71137C40.1976 3.71137 40.3193 3.71137 40.441 3.71137C42.8747 3.8939 44.4566 7.84863 44.5174 10.2215C44.5174 10.3432 44.6391 10.404 44.7608 10.2823C45.4909 9.36968 47.8637 7.05768 48.6547 6.14505C48.7155 6.02337 48.7155 5.84084 48.6547 5.71916C47.1945 3.52884 43.5439 2.312 40.6844 2.312C40.3801 2.312 40.1368 2.37284 39.8934 2.37284C36.6079 2.55537 32.8357 3.83305 32.1665 9.67389H29.8545C29.6719 9.67389 29.4894 9.85642 29.4894 10.0998V10.2823Z" fill="white"/>
<path d="M50.9115 15.1497C50.9724 13.2027 51.8242 10.0998 53.7103 10.1606C55.5355 10.2215 56.2656 13.3853 55.9614 14.9672C55.5355 17.7659 53.4669 19.5303 51.9458 20.0171C51.2157 18.6785 50.8507 16.9749 50.9115 15.1497ZM63.0799 21.964C61.7414 23.3025 59.8553 23.8501 58.0301 23.8501C55.5355 23.8501 53.5277 22.6333 52.3109 20.6863C55.2313 20.4429 61.3764 19.0436 61.9848 14.9063C62.4715 11.8642 59.1861 9.12632 54.8663 9.12632C54.6229 9.12632 54.3187 9.18716 54.0753 9.18716C47.0785 9.55221 44.5231 14.9063 44.7665 19.4695C45.0707 25.432 49.3296 28.8392 55.1096 28.8392C59.3077 28.6566 62.9583 25.7362 63.3842 22.0857C63.3842 21.964 63.3233 21.9032 63.2016 21.9032C63.2016 21.9032 63.1408 21.9032 63.0799 21.964Z" fill="white"/>
<path d="M94.9992 21.0514C93.9041 23.3634 91.1662 25.432 88.55 25.432C82.7091 25.1886 80.8839 17.9484 81.7357 11.1341C81.979 8.94379 83.135 5.29326 85.8121 5.29326C88.2458 5.47579 88.9759 10.4648 88.6717 14.7238C88.6717 15.028 88.8542 15.2714 89.1584 15.2714C89.2192 15.2714 89.2801 15.2105 89.3409 15.2105C90.862 14.4804 94.1474 12.2293 95.3034 11.6208C95.486 11.4992 95.5468 11.2558 95.486 11.0733C93.9649 6.38842 90.2535 4.07642 85.447 4.07642C78.3285 4.07642 74.1304 9.73474 73.7045 15.6364C73.2786 22.5116 77.6592 28.2916 85.1428 28.9C85.3862 28.9 85.6904 28.9 85.9338 28.9C90.7403 28.9 95.1209 25.9187 96.0335 21.5989C96.2161 20.8688 95.9727 20.5646 95.6685 20.5646C95.4251 20.5646 95.1818 20.7472 94.9992 21.0514Z" fill="white"/>
<path d="M106.768 28.0482C105.186 28.0482 104.517 23.8501 104.456 19.0436C104.396 14.2371 104.943 10.0389 106.647 10.0389C108.35 9.9781 108.898 14.1762 108.959 18.9827C109.02 23.7893 108.35 28.0482 106.768 28.0482ZM109.324 9.55221C108.411 9.30884 107.498 9.18716 106.647 9.18716C102.266 9.18716 98.3113 11.9859 97.0945 16.3057C95.6343 21.5381 98.7981 27.0139 104.091 28.4741C105.004 28.7175 105.917 28.8392 106.829 28.8392C111.149 28.8392 115.104 26.0404 116.321 21.7206C117.781 16.4882 114.617 11.0733 109.324 9.55221Z" fill="white"/>
<path d="M125.654 26.3446C124.193 26.0404 123.828 24.3368 123.95 22.6941C124.193 18.496 127.54 16.6099 128.939 16.2448V23.9109C128.939 24.0935 128.939 24.276 129 24.4585C128.27 25.432 127.114 26.4055 126.08 26.4055C125.897 26.4055 125.775 26.4055 125.654 26.3446ZM137.275 28.3524C136.544 26.8922 136.118 25.9187 136.118 24.3368V18.1309C136.118 10.3432 130.156 9.18716 126.505 9.18716C124.498 9.18716 121.09 10.2215 119.509 12.5943C119.387 12.7768 119.387 12.9594 119.509 13.0811C119.995 13.7503 121.273 15.3931 121.821 16.184C121.942 16.3057 122.064 16.2448 122.064 16.1232C122.125 13.7503 123.403 10.6474 125.836 10.404C125.958 10.404 126.08 10.404 126.201 10.404C129.426 10.404 129.061 14.6021 128.939 15.6973C127.661 15.8189 117.318 17.5834 117.318 24.3368C117.318 27.8657 120.117 28.8392 123.159 28.8392C126.14 28.6566 128.209 26.588 129.061 25.1886C129.304 27.0139 130.339 28.3524 132.529 28.3524H137.275Z" fill="white"/>
<path d="M156.153 22.8766C154.936 23.8501 153.293 24.276 151.711 24.276C146.966 24.276 144.045 20.017 144.775 14.7846C145.019 12.8377 146.235 9.9781 148.122 10.0998C150.068 10.2823 151.468 14.8455 151.224 18.1918C151.224 18.4352 151.407 18.6177 151.59 18.6177C151.65 18.6177 151.711 18.6177 151.772 18.5568C153.111 17.6442 154.875 15.9406 155.788 15.1497C155.97 15.028 156.031 14.9063 155.97 14.7238C154.571 11.2558 151.407 9.18716 147.696 9.18716C141.976 9.18716 138.569 13.6895 138.204 18.3743C137.9 23.7893 141.429 28.4133 147.513 28.8392C151.346 28.8392 155.483 27.1964 156.457 23.0592C156.457 22.8766 156.274 22.7549 156.153 22.8766Z" fill="white"/>
<path d="M167.109 28.2916C166.318 26.8314 165.953 25.7362 165.953 24.0935V16.6099C165.831 14.1762 166.561 11.1341 168.508 10.8299C171.185 10.8299 171.368 13.9328 171.368 16.0015V23.9109C171.368 26.4663 172.22 28.2916 174.958 28.2916H179.703C178.912 26.9531 178.547 25.9187 178.547 24.3368V18.1918C178.547 13.0811 176.235 9.12632 170.76 9.12632C168.387 9.248 166.744 10.5865 165.953 12.3509L165.892 2.312L157.374 4.74568C158.165 6.20589 158.53 7.30105 158.53 8.94379V24.0935C158.53 25.7362 158.165 26.8314 157.374 28.2916H167.109Z" fill="white"/>
<path d="M191.806 14.1154V18.9827C191.806 20.6863 191.441 26.8314 190.65 28.3524H200.384C199.654 26.8314 199.228 20.6863 199.228 18.9827V18.5568C201.54 18.9219 203.366 26.1621 203.731 26.9531C203.974 27.5006 203.852 28.1091 203.487 28.3524H214.743C213.222 27.2573 212.37 26.2229 211.64 25.1886C209.997 22.8766 207.077 18.4352 206.59 17.6442C209.754 16.6099 212.188 14.7238 212.188 11.4383C212.188 6.14505 206.225 4.68484 199.533 4.68484H190.65C191.441 6.14505 191.806 12.4118 191.806 14.1154ZM199.289 5.47579C199.472 5.41495 199.715 5.41495 199.898 5.41495C203.183 5.41495 204.765 7.90947 204.765 11.1949C204.826 14.8455 203.001 17.6442 199.837 17.8876H199.228L199.289 5.47579Z" fill="white"/>
<path d="M218.862 15.1497C218.923 13.2027 219.774 10.0998 221.661 10.1606C223.486 10.2215 224.216 13.3853 223.912 14.9672C223.486 17.7659 221.417 19.5303 219.896 20.0171C219.166 18.6785 218.801 16.9749 218.862 15.1497ZM231.03 21.964C229.692 23.3025 227.806 23.8501 225.98 23.8501C223.486 23.8501 221.478 22.6333 220.261 20.6863C223.182 20.4429 229.327 19.0436 229.935 14.9063C230.422 11.8642 227.136 9.12632 222.817 9.12632C222.573 9.12632 222.269 9.18716 222.026 9.18716C215.029 9.55221 212.473 14.9063 212.717 19.4695C213.021 25.432 217.28 28.8392 223.06 28.8392C227.258 28.6566 230.909 25.7362 231.335 22.0857C231.335 21.964 231.274 21.9032 231.152 21.9032C231.152 21.9032 231.091 21.9032 231.03 21.964Z" fill="white"/>
<path d="M231.635 4.98905C231.635 7.48358 233.764 9.43053 236.076 9.43053C239.058 9.43053 240.579 7.11853 240.7 6.26674C240.7 6.14505 240.64 6.02337 240.518 6.02337C239.605 6.02337 239.058 5.11074 239.058 4.25895C239.058 3.34632 239.605 2.37284 240.883 2.37284C241.005 2.37284 241.126 2.43368 241.309 2.43368C243.925 2.79874 245.568 5.65831 245.568 9.67389V18.9219C245.568 20.5646 245.75 27.3789 244.412 28.2307H254.146C253.416 27.9874 253.173 25.1886 253.051 22.6941C254.268 24.3977 255.911 26.588 256.093 26.8922C256.398 27.3789 256.154 28.0482 255.85 28.2916H266.923C265.767 27.1964 264.672 26.0404 263.82 25.1278C262.238 23.4242 257.675 17.34 256.093 15.2714C257.432 13.2027 258.831 11.4992 259.744 11.3775C259.926 11.3775 260.048 11.3166 260.17 11.3166C262.117 11.3166 261.873 14.1762 261.934 16.4274C261.934 16.5491 262.056 16.5491 262.178 16.4882C262.725 15.6973 265.341 11.6208 265.828 10.9516C265.889 10.8299 265.95 10.6474 265.828 10.4648C264.855 9.18716 263.516 8.82211 262.36 8.82211C262.056 8.82211 261.691 8.8221 261.448 8.88295C259.196 9.30884 256.641 12.3509 252.93 18.5568C252.93 16.5491 252.747 6.936 254.146 4.56316C253.416 4.74568 252.2 4.92821 252.017 4.98905C251.713 5.04989 251.469 5.04989 251.165 5.04989C246.724 5.04989 243.864 0.60842 238.449 0.0608431C238.084 0 237.719 0 237.415 0C234.069 0 231.635 1.82526 231.635 4.98905ZM241.856 28.2916C241.126 26.7705 240.7 25.6754 240.7 24.0326V9.43053C238.997 11.3166 235.59 11.6208 233.643 11.6208C232.73 11.6208 232.182 11.56 232.182 11.56C232.791 12.8985 233.278 14.0545 233.278 15.7581V24.0326C233.278 25.6754 232.913 26.7705 232.122 28.2916H241.856Z" fill="white"/>
<path d="M274.884 24.0935C274.884 24.0935 274.823 11.2558 274.823 9.49137C273.181 11.3775 269.713 11.6817 267.766 11.6817C266.914 11.6817 266.305 11.6208 266.305 11.6208C266.975 12.9594 267.461 14.1154 267.461 15.8189V24.0935C267.461 25.7362 267.096 26.8314 266.305 28.2916H276.04C275.249 26.8314 274.884 25.7362 274.884 24.0935ZM271.051 9.248C273.12 9.248 274.884 7.48358 274.884 5.41495C274.884 3.28547 273.12 1.58189 271.051 1.58189C268.922 1.58189 267.157 3.28547 267.157 5.41495C267.157 7.48358 268.922 9.248 271.051 9.248Z" fill="white"/>
</svg>
