<svg width="40" height="40" viewBox="0 0 40 40" fill="none" xmlns="http://www.w3.org/2000/svg">
<path d="M16.6667 13.3371C16.9603 12.5023 17.54 11.7983 18.3029 11.35C19.0658 10.9016 19.9628 10.7377 20.835 10.8873C21.7072 11.0369 22.4983 11.4903 23.0682 12.1673C23.6381 12.8443 23.9501 13.7012 23.9487 14.5861C23.9487 17.0843 20.2015 18.3333 20.2015 18.3333M20.2498 23.3333H20.2665M11.6667 30V33.8925C11.6667 34.7806 11.6667 35.2246 11.8487 35.4527C12.007 35.651 12.2471 35.7664 12.5009 35.7661C12.7927 35.7658 13.1395 35.4884 13.8329 34.9337L17.8087 31.7531C18.6209 31.1033 19.0269 30.7784 19.4791 30.5474C19.8803 30.3425 20.3074 30.1927 20.7487 30.1021C21.2461 30 21.7662 30 22.8062 30H27C29.8003 30 31.2004 30 32.27 29.455C33.2108 28.9757 33.9757 28.2108 34.455 27.27C35 26.2004 35 24.8003 35 22V13C35 10.1997 35 8.79961 34.455 7.73005C33.9757 6.78924 33.2108 6.02433 32.27 5.54497C31.2004 5 29.8003 5 27 5H13C10.1997 5 8.79961 5 7.73005 5.54497C6.78924 6.02433 6.02433 6.78924 5.54497 7.73005C5 8.79961 5 10.1997 5 13V23.3333C5 24.8833 5 25.6583 5.17037 26.2941C5.63271 28.0196 6.98044 29.3673 8.7059 29.8296C9.34174 30 10.1167 30 11.6667 30Z" stroke="#DE5217" stroke-width="2" stroke-linecap="round" stroke-linejoin="round"/>
</svg>
