<svg width="24" height="25" viewBox="0 0 24 25" fill="none" xmlns="http://www.w3.org/2000/svg">
<g clip-path="url(#clip0_102_8505)">
<path fill-rule="evenodd" clip-rule="evenodd" d="M12 0.899902C5.3724 0.899902 0 6.2807 0 12.9203C0 18.2303 3.438 22.7363 8.2068 24.3251C8.8068 24.4355 9.0252 24.0647 9.0252 23.7455C9.0252 23.4611 9.0156 22.7039 9.0096 21.7019C5.6712 22.4279 4.9668 20.0903 4.9668 20.0903C4.422 18.7007 3.6348 18.3311 3.6348 18.3311C2.5452 17.5871 3.7176 17.6015 3.7176 17.6015C4.9212 17.6855 5.5548 18.8399 5.5548 18.8399C6.6252 20.6759 8.364 20.1455 9.0468 19.8383C9.1572 19.0619 9.4668 18.5327 9.81 18.2327C7.146 17.9291 4.344 16.8971 4.344 12.2915C4.344 10.9799 4.812 9.9059 5.5788 9.0659C5.4552 8.7623 5.0436 7.5395 5.6964 5.8859C5.6964 5.8859 6.7044 5.5619 8.9964 7.1171C9.97532 6.85012 10.9853 6.71413 12 6.7127C13.02 6.7175 14.046 6.8507 15.0048 7.1171C17.2956 5.5619 18.3012 5.8847 18.3012 5.8847C18.9564 7.5395 18.5436 8.7623 18.4212 9.0659C19.1892 9.9059 19.6548 10.9799 19.6548 12.2915C19.6548 16.9091 16.848 17.9255 14.1756 18.2231C14.6064 18.5939 14.9892 19.3271 14.9892 20.4491C14.9892 22.0547 14.9748 23.3519 14.9748 23.7455C14.9748 24.0671 15.1908 24.4415 15.8004 24.3239C18.19 23.5224 20.2672 21.9903 21.7386 19.944C23.2099 17.8976 24.001 15.4407 24 12.9203C24 6.2807 18.6264 0.899902 12 0.899902Z" fill="#FDF8F2"/>
</g>
<defs>
<clipPath id="clip0_102_8505">
<rect width="24" height="24" fill="white" transform="translate(0 0.899902)"/>
</clipPath>
</defs>
</svg>
