<svg width="24" height="25" viewBox="0 0 24 25" fill="none" xmlns="http://www.w3.org/2000/svg">
<g clip-path="url(#clip0_102_8507)">
<path d="M17.7703 10.9968C18.3188 9.46865 19.8984 5.04834 19.8984 3.63271C19.8984 2.38584 19.1625 1.34053 17.85 1.34053C15.7594 1.34053 13.8844 7.51396 13.2984 8.98584C12.8438 7.6499 10.7156 0.899902 8.84063 0.899902C7.38282 0.899902 6.69844 1.97334 6.69844 3.32334C6.69844 4.97803 8.30157 9.26709 8.88282 10.9171C8.58751 10.8093 8.26876 10.7155 7.94532 10.7155C6.84844 10.7155 5.68126 12.0796 5.68126 13.1812C5.68126 13.5983 5.91094 14.1843 6.05626 14.5733C4.32657 15.0421 3.66094 16.1952 3.66094 17.9343C3.65626 21.3187 6.86251 24.8999 11.3719 24.8999C16.9031 24.8999 20.3438 20.7468 20.3438 15.389C20.3438 13.3687 20.0203 11.5452 17.7703 10.9968ZM16.1109 5.9624C16.2984 5.38584 17.1 2.94834 17.85 2.94834C18.2531 2.94834 18.3609 3.36553 18.3609 3.69834C18.3609 4.59365 16.5516 9.53896 16.1531 10.6358L14.5594 10.3546L16.1109 5.9624ZM8.17032 3.16396C8.17032 2.60615 8.85001 1.02178 10.3406 5.37178L11.9625 10.0733C11.2313 10.0124 10.6641 9.93272 10.3031 10.139C9.79219 8.78897 8.17032 4.52803 8.17032 3.16396ZM8.06251 12.3374C9.43594 12.3374 11.2078 16.7718 11.2078 17.3718C11.2078 17.6108 10.9781 17.9062 10.7109 17.9062C9.73126 17.9062 7.10626 14.3015 7.10626 13.3265C7.11094 12.9655 7.70157 12.3374 8.06251 12.3374ZM16.7016 21.0702C15.3375 22.5702 13.5938 23.3483 11.5594 23.3483C8.77501 23.3483 6.57657 21.8202 5.51719 19.2093C4.71563 17.1749 5.69532 16.0077 6.48282 16.0077C7.01719 16.0077 9.02813 18.8343 9.02813 19.4343C9.02813 19.664 8.66719 19.8233 8.47969 19.8233C7.72501 19.8233 7.42969 19.0968 6.08438 17.414C4.69219 18.8062 7.04532 21.4874 8.81719 21.4874C10.0406 21.4874 10.8375 20.353 10.5984 19.5187C10.7719 19.5187 10.9875 19.5327 11.1469 19.4905C11.1984 20.7608 11.5734 22.2749 13.1016 22.3827C13.1016 22.3405 13.1953 22.0499 13.1953 22.0358C13.1953 21.2202 12.6984 20.5077 12.6984 19.678C12.6984 18.3515 13.7156 17.0671 14.7469 16.3171C15.1219 16.0358 15.5766 15.8624 16.0172 15.703C16.4719 15.5296 16.9547 15.328 17.3016 14.9812C17.25 14.4562 17.0344 13.9921 16.5094 13.9921C15.2109 13.9921 10.8563 14.1796 10.8563 12.1312C10.8563 11.8171 10.8609 11.5171 11.6719 11.5171C13.1859 11.5171 17.0297 11.8921 18.1547 12.8812C19.0031 13.6358 19.2938 18.1874 16.7016 21.0702ZM12.0797 15.164C12.5344 15.3093 13.0031 15.3515 13.4719 15.4452C13.125 15.6983 12.8156 16.0077 12.5203 16.3405C12.3891 15.9421 12.2297 15.553 12.0797 15.164Z" fill="#FDF8F2"/>
</g>
<defs>
<clipPath id="clip0_102_8507">
<rect width="24" height="24" fill="white" transform="translate(0 0.899902)"/>
</clipPath>
</defs>
</svg>
