<svg width="24" height="25" viewBox="0 0 24 25" fill="none" xmlns="http://www.w3.org/2000/svg">
<g clip-path="url(#clip0_102_8503)">
<path d="M24 12.8999C24 6.27248 18.6274 0.899902 12 0.899902C5.37258 0.899902 0 6.27248 0 12.8999C0 18.8894 4.3882 23.8539 10.125 24.7541V16.3687H7.07812V12.8999H10.125V10.2562C10.125 7.24865 11.9166 5.5874 14.6576 5.5874C15.9701 5.5874 17.3438 5.82178 17.3438 5.82178V8.7749H15.8306C14.34 8.7749 13.875 9.69998 13.875 10.6499V12.8999H17.2031L16.6711 16.3687H13.875V24.7541C19.6118 23.8539 24 18.8894 24 12.8999Z" fill="#FDF8F2"/>
</g>
<defs>
<clipPath id="clip0_102_8503">
<rect width="24" height="24" fill="white" transform="translate(0 0.899902)"/>
</clipPath>
</defs>
</svg>
