<svg width="24" height="25" viewBox="0 0 24 25" fill="none" xmlns="http://www.w3.org/2000/svg">
<path fill-rule="evenodd" clip-rule="evenodd" d="M12 0.899902C5.37527 0.899902 0 6.27518 0 12.8999C0 19.5247 5.37527 24.8999 12 24.8999C18.6117 24.8999 24 19.5247 24 12.8999C24 6.27518 18.6117 0.899902 12 0.899902ZM19.9262 6.43135C21.3579 8.17539 22.217 10.401 22.243 12.8088C21.9046 12.7438 18.5206 12.0539 15.1106 12.4834C15.0325 12.3142 14.9675 12.132 14.8894 11.9498C14.6811 11.4553 14.4469 10.9477 14.2126 10.4661C17.9869 8.9303 19.705 6.71769 19.9262 6.43135ZM12 2.66997C14.603 2.66997 16.9848 3.64611 18.7939 5.24698C18.6117 5.50728 17.0629 7.57669 13.4186 8.94328C11.7397 5.85868 9.87855 3.33374 9.5922 2.94328C10.3601 2.76107 11.1671 2.66997 12 2.66997ZM7.63995 3.63309C7.91325 3.99751 9.73538 6.53548 11.4404 9.55498C6.65076 10.8305 2.42083 10.8045 1.96529 10.8045C2.62907 7.62875 4.77657 4.98667 7.63995 3.63309ZM1.74404 12.913C1.74404 12.8088 1.74404 12.7047 1.74404 12.6006C2.18655 12.6136 7.15835 12.6787 12.2733 11.1429C12.5727 11.7155 12.846 12.3012 13.1063 12.8869C12.9761 12.9259 12.8329 12.965 12.7028 13.004C7.41865 14.709 4.60738 19.3684 4.3731 19.7589C2.7462 17.9498 1.74404 15.542 1.74404 12.913ZM12 23.1559C9.6312 23.1559 7.44469 22.3489 5.71367 20.9953C5.89588 20.6179 7.97827 16.6093 13.757 14.5919C13.783 14.5789 13.7961 14.5789 13.8221 14.5659C15.2668 18.3012 15.8525 21.4378 16.0087 22.3359C14.7722 22.8695 13.4186 23.1559 12 23.1559ZM17.7136 21.3988C17.6096 20.7741 17.0629 17.7806 15.7223 14.0973C18.9371 13.5897 21.7484 14.4227 22.0998 14.5399C21.6573 17.3902 20.0173 19.85 17.7136 21.3988Z" fill="#FDF8F2"/>
</svg>
