<svg width="24" height="20" viewBox="0 0 24 20" fill="none" xmlns="http://www.w3.org/2000/svg">
<path d="M7.55016 19.6501C16.6045 19.6501 21.5583 12.1469 21.5583 5.64201C21.5583 5.43107 21.5536 5.21544 21.5442 5.00451C22.5079 4.30761 23.3395 3.4444 24 2.45544C23.1025 2.85475 22.1496 3.11553 21.1739 3.22888C22.2013 2.61305 22.9705 1.64562 23.3391 0.505913C22.3726 1.0787 21.3156 1.48276 20.2134 1.70076C19.4708 0.911707 18.489 0.389263 17.4197 0.214197C16.3504 0.0391322 15.2532 0.221197 14.2977 0.732243C13.3423 1.24329 12.5818 2.05485 12.1338 3.04146C11.6859 4.02806 11.5754 5.13476 11.8195 6.19044C9.86249 6.09224 7.94794 5.58385 6.19998 4.69825C4.45203 3.81264 2.90969 2.56958 1.67297 1.04966C1.0444 2.13339 0.852057 3.41579 1.13503 4.63624C1.418 5.85668 2.15506 6.92359 3.19641 7.62013C2.41463 7.59531 1.64998 7.38483 0.965625 7.00607V7.06701C0.964925 8.2043 1.3581 9.30673 2.07831 10.1869C2.79852 11.0671 3.80132 11.6707 4.91625 11.8951C4.19206 12.0933 3.43198 12.1221 2.69484 11.9795C3.00945 12.9576 3.62157 13.813 4.44577 14.4265C5.26997 15.0399 6.26512 15.3807 7.29234 15.4014C5.54842 16.7713 3.39417 17.5143 1.17656 17.5108C0.783287 17.5102 0.390399 17.4861 0 17.4386C2.25286 18.8839 4.87353 19.6515 7.55016 19.6501Z" fill="#FDF8F2"/>
</svg>
