<svg width="24" height="25" viewBox="0 0 24 25" fill="none" xmlns="http://www.w3.org/2000/svg">
<path d="M22.2234 0.899902H1.77187C0.792187 0.899902 0 1.67334 0 2.62959V23.1655C0 24.1218 0.792187 24.8999 1.77187 24.8999H22.2234C23.2031 24.8999 24 24.1218 24 23.1702V2.62959C24 1.67334 23.2031 0.899902 22.2234 0.899902ZM7.12031 21.3515H3.55781V9.89521H7.12031V21.3515ZM5.33906 8.33428C4.19531 8.33428 3.27188 7.41084 3.27188 6.27178C3.27188 5.13271 4.19531 4.20928 5.33906 4.20928C6.47813 4.20928 7.40156 5.13271 7.40156 6.27178C7.40156 7.40615 6.47813 8.33428 5.33906 8.33428ZM20.4516 21.3515H16.8937V15.7827C16.8937 14.4562 16.8703 12.7452 15.0422 12.7452C13.1906 12.7452 12.9094 14.1937 12.9094 15.689V21.3515H9.35625V9.89521H12.7687V11.4608H12.8156C13.2891 10.5608 14.4516 9.60928 16.1813 9.60928C19.7859 9.60928 20.4516 11.9812 20.4516 15.0655V21.3515Z" fill="#FDF8F2"/>
</svg>
